<svg width="192" height="192" viewBox="0 0 192 192" fill="none" xmlns="http://www.w3.org/2000/svg">
<rect width="192" height="192" rx="40" fill="#3F16E4"/>
<rect width="17.7681" height="71.6913" transform="matrix(-0.746022 -0.683658 0.649172 -0.744947 60.0187 113.981)" fill="#FFFEFE"/>
<rect width="15.5582" height="35.1928" transform="matrix(0.645739 -0.747995 0.749047 0.68027 33.8159 116.848)" fill="#FFFEFE"/>
<rect width="13.5987" height="6.6175" transform="matrix(0.739553 0.690798 -0.656415 0.738429 64.3878 115.062)" fill="#FFFEFE"/>
<rect width="1.62445" height="26.7213" transform="matrix(-0.746022 -0.683658 0.649172 -0.744947 60.3794 140.975)" fill="#FFFEFE"/>
<path d="M73.6892 125.689L64.3877 115.062L82.7098 115.522L73.6892 125.689Z" fill="#FFFEFE"/>
<rect width="17.7681" height="71.6913" transform="matrix(0.746022 0.683658 -0.649172 0.744947 132.961 77.8447)" fill="#FFFEFE"/>
<rect width="15.5582" height="35.1928" transform="matrix(-0.645739 0.747995 -0.749047 -0.68027 159.163 74.9783)" fill="#FFFEFE"/>
<rect width="13.5987" height="6.6175" transform="matrix(-0.739553 -0.690798 0.656415 -0.738429 128.592 76.7642)" fill="#FFFEFE"/>
<rect width="1.62445" height="26.7213" transform="matrix(0.746022 0.683658 -0.649172 0.744947 132.6 50.8507)" fill="#FFFEFE"/>
<path d="M119.29 66.137L128.592 76.7642L110.27 76.3038L119.29 66.137Z" fill="#FFFEFE"/>
</svg>
