<svg width="256" height="256" viewBox="0 0 256 256" fill="none" xmlns="http://www.w3.org/2000/svg">
<path d="M208 128C208 172.184 172.184 208 128 208C92.9684 208 62.8295 185.35 52 154C49.1672 145.811 48 137.152 48 128C48 83.8164 83.8164 48 128 48C150.632 48 171.452 57.8926 186 73C199.861 87.3832 208 106.452 208 128Z" stroke="white" stroke-width="7.28593" stroke-miterlimit="10"/>
<path d="M190 99C190 116.027 185.028 132.013 176 145C173.891 148.04 171.503 150.288 169 153C163.812 158.631 157.603 164.045 151 168C143.367 172.573 135.001 175.183 126 177C120.863 178.04 115.44 179 110 179C87.3658 179 66.5493 169.149 52 154C49.1669 145.789 48 137.177 48 128C48 83.695 83.813 48 128 48C150.634 48 171.451 57.8511 186 73C188.833 81.2111 190 89.8228 190 99Z" stroke="white" stroke-width="7.28593" stroke-miterlimit="10"/>
<path d="M127 175C153.786 175 175 153.786 175 127C175 100.214 153.786 78 127 78C100.214 78 78 100.214 78 127C78 153.786 100.214 175 127 175Z" stroke="white" stroke-width="7.28593" stroke-miterlimit="10"/>
<path d="M137 170C155.778 170 171 154.778 171 136C171 117.222 155.778 102 137 102C118.222 102 103 117.222 103 136C103 154.778 118.222 170 137 170Z" stroke="white" stroke-width="7.28593" stroke-miterlimit="10"/>
</svg>
